<svg width="10" height="12" viewBox="0 0 10 12" fill="none" xmlns="http://www.w3.org/2000/svg">
<path d="M4.99992 0.166748C2.54992 0.166748 0.333252 2.04508 0.333252 4.95008C0.333252 6.80508 1.76242 8.98675 4.61492 11.5009C4.83659 11.6934 5.16909 11.6934 5.39075 11.5009C8.23742 8.98675 9.66658 6.80508 9.66658 4.95008C9.66658 2.04508 7.44992 0.166748 4.99992 0.166748ZM4.99992 6.00008C4.35825 6.00008 3.83325 5.47508 3.83325 4.83342C3.83325 4.19175 4.35825 3.66675 4.99992 3.66675C5.64159 3.66675 6.16658 4.19175 6.16658 4.83342C6.16658 5.47508 5.64159 6.00008 4.99992 6.00008Z" fill="#BDBDBD"/>
</svg>
